<?xml version="1.0" encoding="utf-8"?>
<!-- Generator: Adobe Illustrator 22.1.0, SVG Export Plug-In . SVG Version: 6.00 Build 0)  -->
<svg version="1.1" id="Layer_1" xmlns="http://www.w3.org/2000/svg" fill="rgb(50, 183, 104)" xmlns:xlink="http://www.w3.org/1999/xlink" x="0px" y="0px"
	 viewBox="0 0 512 512" style="enable-background:new 0 0 512 512;" xml:space="preserve">
<g>
	<path d="M475.2,89.9C426.5,53,351.6,31,274.7,31c-95,0-172.4,33.2-212.4,91c-18.8,27.2-29.1,59.3-30.9,95.6
		c-1.5,32.3,3.9,68,16.1,106.5c41.7-125,158.2-222.9,292.5-222.9c0,0-125.7,33.1-204.7,135.5c-0.1,0.1-1.1,1.4-2.9,3.8
		c-15.9,21.2-29.7,45.4-40,72.7C75,354.9,58.7,412.1,58.7,481H115c0,0-8.6-53.7,6.3-115.5c24.6,3.3,46.5,5,66.3,5
		c51.7,0,88.5-11.2,115.8-35.2c24.4-21.5,37.9-50.5,52.2-81.1c21.8-46.8,46.5-99.8,118.1-140.7c4.1-2.3,6.8-6.6,7.1-11.3
		C481,97.4,479,92.8,475.2,89.9L475.2,89.9z"/>
</g>
</svg>
