<svg fill="none" xmlns="http://www.w3.org/2000/svg" viewBox="0 0 489 357"><path opacity=".3" d="m120.73 133.55-19.9-.77a2.72 2.72 0 1 0-.01 5.44l19.91-.69" fill="#A3A9AC"/><path opacity=".4" fill-rule="evenodd" clip-rule="evenodd" d="M121.69 125.06a5.13 5.13 0 1 1 9.4 2.83l1.88.1v11.13l-12.34-.65v-11.13l1.65.09c-.38-.7-.6-1.5-.6-2.37Zm5.13-3.92a3.92 3.92 0 0 0-2.88 6.55l1 1.1-3.09-.16v8.69l9.9.52v-8.7l-3.45-.17 1.11-.99a3.92 3.92 0 0 0-2.59-6.84Z" fill="#A3A9AC"/><path opacity=".25" d="M464.8 263.54H295.6l-.53-13.34h169.2l.54 13.34Z" fill="#A3A9AC"/><g opacity=".3" fill="#A3A9AC"><path d="M315 168.5a1.93 1.93 0 1 1-3.87 0 1.93 1.93 0 0 1 3.87 0ZM336.15 168.5a1.93 1.93 0 1 1-3.87 0 1.93 1.93 0 0 1 3.87 0ZM355.36 170.44a1.93 1.93 0 1 1-3.86 0 1.93 1.93 0 0 1 3.86 0ZM378.44 168.5a1.93 1.93 0 1 1-3.86 0 1.93 1.93 0 0 1 3.86 0ZM399.6 169.56a1.93 1.93 0 1 1-3.87 0 1.93 1.93 0 0 1 3.86 0ZM420.74 168.5a1.93 1.93 0 1 1-3.86 0 1.93 1.93 0 0 1 3.86 0ZM441.9 169.11a1.93 1.93 0 1 1-3.88 0 1.93 1.93 0 0 1 3.87 0ZM316.93 189.68a1.93 1.93 0 1 1-3.87 0 1.93 1.93 0 0 1 3.87 0ZM336.15 189.68a1.93 1.93 0 1 1-3.87 0 1.93 1.93 0 0 1 3.87 0ZM357.3 189.68a1.93 1.93 0 1 1-3.87 0 1.93 1.93 0 0 1 3.87 0ZM378.44 189.68a1.93 1.93 0 1 1-3.86 0 1.93 1.93 0 0 1 3.86 0ZM397.66 191.2a1.93 1.93 0 1 1-3.86 0 1.93 1.93 0 0 1 3.86 0ZM420.74 189.68a1.93 1.93 0 1 1-3.86 0 1.93 1.93 0 0 1 3.86 0ZM441.9 189.68a1.93 1.93 0 1 1-3.87 0 1.93 1.93 0 0 1 3.86 0ZM315 210.86a1.93 1.93 0 1 1-3.87 0 1.93 1.93 0 0 1 3.87 0ZM336.15 210.86a1.93 1.93 0 1 1-3.87 0 1.93 1.93 0 0 1 3.87 0ZM357.3 210.86a1.93 1.93 0 1 1-3.87 0 1.93 1.93 0 0 1 3.87 0ZM380.38 211.73a1.93 1.93 0 1 1-3.87 0 1.93 1.93 0 0 1 3.87 0ZM399.6 210.86a1.93 1.93 0 1 1-3.87 0 1.93 1.93 0 0 1 3.86 0ZM421.39 209.8a1.93 1.93 0 1 1-3.87 0 1.93 1.93 0 0 1 3.87 0ZM441.01 210.86a1.93 1.93 0 1 1-3.86 0 1.93 1.93 0 0 1 3.86 0ZM316.93 233.96a1.93 1.93 0 1 1-3.87 0 1.93 1.93 0 0 1 3.87 0ZM334.21 233.97a1.93 1.93 0 1 0 0-3.87 1.93 1.93 0 0 0 0 3.87ZM357.3 232.03a1.93 1.93 0 1 1-3.87 0 1.93 1.93 0 0 1 3.87 0ZM376.51 233.97a1.93 1.93 0 1 0 0-3.87 1.93 1.93 0 0 0 0 3.87ZM399.6 233.96a1.93 1.93 0 1 1-3.87 0 1.93 1.93 0 0 1 3.86 0ZM418.81 233.97a1.93 1.93 0 1 0 0-3.87 1.93 1.93 0 0 0 0 3.87ZM441.9 232.03a1.93 1.93 0 1 1-3.87 0 1.93 1.93 0 0 1 3.86 0Z"/></g><g opacity=".4" fill="#A3A9AC"><path d="M336.15 278.49H347v-1.22h-10.85v1.22ZM413.39 278.49h10.85v-1.22h-10.85v1.22ZM369.77 315.96v-10.85h-1.22v10.85h1.22ZM395.54 300l.64 13.6-1.22.06-.64-13.6 1.22-.06Z"/></g><g opacity=".16" fill="#A3A9AC"><path d="M80.87 150.9h68.02v-11.72l-67.62-1.24-.4 12.96Z"/><path fill-rule="evenodd" clip-rule="evenodd" d="M43 352.86 83.6 151h13.8l-2.35 11.65h23.5l2.34-11.65h13.8l-40.6 201.86H80.3l3.58-17.75-23.49-.07-3.58 17.82H43Zm15.65-19.04.83-5.42 25.07.07-.77 5.42-25.13-.07Zm6.4-22.02-3.09 15.38 23.49.07 2.9-14.45-23.3-1Zm28.13-23.01-3.25 16.17-23.3-1 3.19-15.85 23.36.68Zm-29.85 21.72.9-5.43 25 1.07-.84 5.43-25.06-1.07Zm4.8-23.68.9-5.42 24.86.73-.85 5.43-24.92-.74Zm6.64-23.32-3.37 16.75 23.36.68 3.4-16.89-23.4-.55Zm28-22.36-2.97 14.72-23.45-.25 2.88-14.32 23.53-.15Zm-29.8 21.1.82-5.44 25.15.27-1.15 5.74-24.82-.58Zm4-22.16.82-5.42 25.53-.16-.76 5.42-25.6.16Zm7.01-22.4-3.16 15.74 23.52-.15 2.88-14.3-23.24-1.3Zm28.15-23.12-3.33 16.58-23.24-1.3 3.12-15.53 23.45.25Zm-30.56 21.76.92-5.43 25.37 1.42-.86 5.43-25.43-1.42Zm5.11-23.25.87-5.42 25.17.26-.8 5.43-25.24-.27Zm6.79-22.57-3.21 15.96 23.45.24 3.26-16.2h-23.5Zm24.28-6.64-.77 5.42h-26.3l.84-5.42h26.23Z"/><path d="m384.36 286.85 70.55.91-.25-19.24-70.66-.53.36 18.86ZM305.23 287.7l72.24-.97V268H306.8l-1.58 19.7ZM309.01 331.04l31.51.47v16.5l35.3.87.89-55.82-67.7 1.44v6.35h5.6l11.94 30.44-17.54-.27v.02ZM386.9 347.23l65.56.21 1.11-54.38-66.67-.6v54.77Z"/></g><path opacity=".4" d="M326.55 331.29 153.2 328.7l13.52-27.85h147.9l11.94 30.43Z" fill="#A3A9AC"/><path opacity=".3" d="m340.52 331.51-202.3-3.03v24.3h202.3v-21.26Z" fill="#A3A9AC"/><g opacity=".4" fill="#A3A9AC"><path d="M455.52 152.2v98h-1.22v-96.76l-154.94 2.6 2.81 94.14-1.22.03-2.84-95.37 157.41-2.64ZM299.34 263.59v37.26h-1.22V263.6h1.22ZM299.34 330.88l-1.22-.02v.02l1.22.02v-.02Z"/><path d="M462.28 352.16v-88.57h-1.22v88.57H1.72v1.22H487.6v-1.22h-25.33Z"/></g><g opacity=".08" fill="#A3A9AC"><path d="m116.98 169.29.77-5.42H91.52l-.83 5.42h26.3ZM107 217.75l.86-5.43-25.37-1.42-.92 5.43 25.43 1.42ZM102.56 239.93l.77-5.42-25.54.16-.83 5.42 25.6-.16ZM93.04 287.57l.85-5.43-24.86-.73-.9 5.42 24.91.74ZM88.39 311.58l.83-5.43-25-1.07-.9 5.43 25.07 1.07ZM83.78 333.9l.77-5.43-25.07-.07-.83 5.42 25.13.07ZM111.92 193.35l.8-5.43-25.17-.26-.87 5.42 25.23.27ZM97.79 262.82l1.15-5.74-25.15-.27-.82 5.43 24.82.58Z"/></g><g opacity=".25" fill="#A3A9AC"><path d="m93.47 170.5-1.74 8.66 1.48 7.34 13.31.14-3.31-16.13h-9.74ZM95.05 162.65h6.54l-2.4-11.75H97.4l-2.36 11.75ZM108.14 194.53l-13.33-.14 3.26 16.16 10.72.6 1.37-6.79-2.02-9.83ZM107.22 218.98l-7.53-.42 2.98 14.73h1.67l2.88-14.3ZM110.82 269.7h-.2l-.9 4.44h1.21l15.9 78.63h11.4v-11.74l-13.74-66.9 27.29-.03 6.95 43.2 7.98-16.44h2.98L145.56 150.9h-10.85l-1.53 7.6 17.89 111.17-27.5.02-6.44-31.38-6.31 31.4ZM162.28 328.84l11.94.18-11.94-.18Z"/></g><path d="m194.55 86.08-12.4 66.01-11.78-2.39 9.04-69.22 15.14 5.6ZM195.18 205.52a15.16 15.16 0 1 1-28.62 10.06 15.16 15.16 0 1 1 28.62-10.06ZM197.44 198.2a6.7 6.7 0 0 1-.1 13.4l.1-13.4ZM426.95 211.43a6.7 6.7 0 1 1 13.36-.52l-13.36.52ZM434.36 213.45a15.19 15.19 0 0 1 11.36 28.16 15.19 15.19 0 0 1-11.36-28.16ZM315.18 219.59l66.51 9.35-1.84 11.88-69.58-5.86 4.9-15.38ZM258.2 165.91l2.46 76.38 15.07 1.13 2.47-81.54-20 4.03ZM227.46 165.92l-2.47 76.38-15.06 1.13-2.48-81.54 20 4.03Z" fill="#E9EAEB"/><path fill-rule="evenodd" clip-rule="evenodd" d="M301.29 96.08c.46-1.28.76-2.62.97-3.98.99 3.78 1.02 7.79.84 11.93l-.18 3.4c-.2 3.51-.42 7.08-.17 10.56l1.22-.08c-.24-3.4-.04-6.85.16-10.34.07-1.16.14-2.32.19-3.49.2-4.63.15-9.27-1.27-13.64l-.6.2c.16-1.44.24-2.89.32-4.3l-1.21-.07c-.19 3.27-.38 6.51-1.42 9.4a8.02 8.02 0 0 0-.3 2.94c.02.7.09 1.43.15 2.13l.09.99c.08 1 .1 1.83-.03 2.41-.04.18-.09.3-.14.41-.53-.95-1.12-1.85-1.68-2.71a1.84 1.84 0 0 1-.04-.06l.23-1.27c.35-1.99.7-3.98 1-5.98l-1.2-.19c-.3 1.95-.65 3.91-1 5.88v.02c-1.48-2.51-2.6-5.37-1.93-8.1l-1.19-.28c-.88 3.63.94 7.3 2.72 10.05l.09.13-.37 2.15a9.18 9.18 0 0 1-3.14-3.37c-1.47-2.55-2.16-5.66-2.85-8.82l-1.2.27c.9 4.04 2.54 11.36 6.96 13.36a92.24 92.24 0 0 0-1.01 8.58l1.21.07c.18-2.76.54-5.51.97-8.26.58.12 1.21.16 1.88.1a10.72 10.72 0 0 1 1.24 4.62l1.21-.02a11.87 11.87 0 0 0-1.3-5.01 2.46 2.46 0 0 0 .72-1.3c.18-.78.14-1.79.07-2.78l-.1-1.05c-.06-.68-.12-1.35-.15-2.02-.04-1 .01-1.86.24-2.48Zm-3.6 8.63c.34.1.68.17 1.02.2-.26-.46-.54-.9-.82-1.35l-.2 1.15Z" fill="#A3A9AC"/><path d="m250.59 154.59-14.86 1.9.72-97.03h13.48l.66 95.13Z" fill="#799CFB"/><path d="M268.2 176.78a13.2 13.2 0 1 1 .01-26.4 13.2 13.2 0 0 1-.01 26.4ZM217.45 175.76a12.19 12.19 0 1 0-.01-24.37 12.19 12.19 0 0 0 .01 24.37ZM203.3 232.6c-.33 1.36-.71 2.86-1.13 4.5-3.72 14.8-10.22 40.63-6.82 63.76h31.5c5.85 0 10.5-4.87 10.26-10.72-.5-11.85-1.9-30.83-5.84-42.7-3.88-11.65-13.17-16.87-19.43-19.12-3.27-1.17-7.72.9-8.55 4.29ZM283.48 237.1c-.42-1.63-.8-3.14-1.12-4.5-.82-3.38-5.28-5.45-8.55-4.28-6.25 2.25-15.55 7.47-19.43 19.13-3.94 11.86-5.34 30.84-5.84 42.7a10.27 10.27 0 0 0 10.26 10.71h31.5c3.4-23.13-3.1-48.96-6.82-63.75ZM456.82 353h9.23l3.6-6.22-3.6-6.23h-9.23l-3.59 6.23 3.59 6.22ZM88.85 340.56h-9.23l-3.59 6.23 3.59 6.22h9.23l3.6-6.22-3.6-6.23Z" fill="#C5CACB"/><path d="m213.44 68.62 58.78.15V44.34a29.41 29.41 0 0 0-29.4-29.43c-16.22 0-29.38 13.17-29.38 24.35v29.36ZM186.89 72.29l30.96 62.55 51.97-1.1 28.95-61.51-111.88.06ZM219.68 264.41a1.98 1.98 0 1 0 0-3.95 1.98 1.98 0 0 0 0 3.95ZM227.16 300.87a9.97 9.97 0 1 0-.01-19.95 9.97 9.97 0 0 0 0 19.94ZM258.5 300.87a9.97 9.97 0 1 1 0-19.95 9.97 9.97 0 0 1 0 19.94ZM265.97 264.41a1.98 1.98 0 1 1 0-3.95 1.98 1.98 0 0 1 0 3.95ZM212.09 137.9l-.42 29.33 64-.06.65-29.26h-64.23ZM179.05 300.85v-2.64a5.57 5.57 0 0 1 2.76-4.81l14.32-8.36 8.87 15.81h-25.95ZM306.8 298.21v2.64h-25.95l8.87-15.81 14.32 8.36c1.7 1 2.76 2.83 2.76 4.81ZM85.8 349.64h11.64v-5.77H85.8a2.88 2.88 0 0 0 0 5.77ZM448.21 344.03h11.64a2.88 2.88 0 0 1 0 5.77h-11.64v-5.77Z" fill="#E9EAEB"/><path d="M215.85 79.54a2.2 2.2 0 1 1-4.38-.41 2.2 2.2 0 0 1 4.38.41Z" fill="#FF6B60"/><path d="M222.44 79.54a2.2 2.2 0 1 1-4.38-.41 2.2 2.2 0 0 1 4.38.41Z" fill="#FFCF50"/><path fill-rule="evenodd" clip-rule="evenodd" d="m242.13 17.1-.79-13.04-1.21.07.78 13.04 1.22-.07Z" fill="#7F878B"/><path d="M226.43 46.53v-1.84h-1.22v1.84a3.31 3.31 0 1 0 6.62 0v-1.84h-1.22v1.84a2.1 2.1 0 1 1-4.18 0ZM255.7 46.53v-1.84h-1.23v1.84a3.31 3.31 0 1 0 6.62 0v-1.84h-1.22v1.84a2.09 2.09 0 1 1-4.18 0Z" fill="#7F878B"/><path d="M244.45 4.08a3.72 3.72 0 1 1-7.44 0 3.72 3.72 0 0 1 7.44 0ZM226.63 81.53a2.2 2.2 0 1 0 .41-4.38 2.2 2.2 0 0 0-.4 4.38ZM229.04 143.43l-17 .87-.23 16.07h17.66l-.43-16.94ZM275.8 159.56l-16.9-.05-.62-15.25 17.88-.85-.36 16.15ZM249.07 100.9h-34.65a1.5 1.5 0 0 1-1.5-1.5V90.2c0-.83.67-1.51 1.5-1.51h34.65c.84 0 1.5.68 1.5 1.5v9.22c0 .83-.66 1.5-1.5 1.5ZM233.12 16.52A29.35 29.35 0 0 1 250.7 16l-1.41 18.49h-14.2l-1.96-17.96Z" fill="#00C7B7"/><path d="M276.17 81.61h-38.6a2.27 2.27 0 0 1 0-4.54h38.6a2.27 2.27 0 0 1 0 4.54ZM216 110.95h26.96v-1.22h-26.97v1.22ZM239.52 114.81l-19.44.34.02 1.22 19.44-.34-.02-1.22ZM220.1 123.4l14.4-.33-.04-1.22-14.38.33.03 1.22ZM234.42 98.49l-4.28-7.97-1.07.58 4.28 7.97 1.07-.58ZM225.85 92.33l.58 1.07-2.59 1.43 2.6 1.42-.6 1.07-4.52-2.5 4.53-2.49ZM237.4 92.33l4.54 2.5-4.53 2.5-.59-1.08 2.59-1.42-2.59-1.43.59-1.07Z" fill="#fff"/><path d="M261.13 112.35a4.73 4.73 0 0 0-7.01.35 4.89 4.89 0 0 0 .46 6.5l5.21 5.22a1.9 1.9 0 0 0 2.69 0l5.2-5.22a4.88 4.88 0 0 0 .47-6.5 4.73 4.73 0 0 0-7.02-.35Z" fill="#799CFB"/><path d="M244.18 60.13h10.96a1.22 1.22 0 0 0 0-2.44h-10.96a1.22 1.22 0 0 0 0 2.44ZM286.6 78.8a11.17 11.17 0 1 0 22.34.02 11.17 11.17 0 0 0-22.34-.02ZM201.38 79.77a11.17 11.17 0 1 1-22.31-1.01 11.17 11.17 0 0 1 22.3 1ZM163.87 217.06c-9.83-29.68.26-77.8.26-77.8l5.41 1.21a30.96 30.96 0 0 1 21.58 17.65c7.83 17.58 9.88 52.44 9.88 52.44-18.66 12.3-37.13 6.5-37.13 6.5ZM263.56 95.26a1.97 1.97 0 1 1-3.94 0 1.97 1.97 0 0 1 3.94 0ZM228.35 112.38v-3.73l1.77-.08-.33 3.71-1.44.1ZM236.14 117.3v-3.63l-1.66.17.17 3.7 1.49-.25ZM223.48 124.55v-3.62l1.49-.25.17 3.7-1.66.17ZM271.15 95.26a1.97 1.97 0 1 1-3.94 0 1.97 1.97 0 0 1 3.94 0ZM276.47 97.23a1.97 1.97 0 1 0-.01-3.94 1.97 1.97 0 0 0 0 3.94ZM369.67 247.56s48.46 7.88 77.62-3.32c0 0 4.95-18.74-8.2-36.83 0 0-34.68 3.65-51.85 12.28a31 31 0 0 0-16.63 22.4l-.94 5.47ZM100.32 346.77a2.88 2.88 0 1 1-5.76 0 2.88 2.88 0 0 1 5.76 0ZM445.35 346.77a2.88 2.88 0 1 1 5.76 0 2.88 2.88 0 0 1-5.76 0Z" fill="#C5CACB"/><path d="m191.98 99.06-12.05-2.8-.28 1.19 12.06 2.8.27-1.2ZM189.88 109.49l-11.55-4.54-.45 1.13 11.55 4.54.45-1.13ZM175.99 116.7l12.07 3.77-.36 1.16-12.07-3.76.36-1.17ZM185.94 129.94l-12.07-3.77-.37 1.17 12.08 3.76.36-1.16ZM183.6 140.72l-11.25-5.35-.52 1.1 11.24 5.35.52-1.1ZM225.52 184.15l-16.9.7.06 1.22 16.9-.7-.06-1.22ZM209 195.08l15.37.83-.07 1.22-15.37-.84.06-1.21ZM225.44 206.3l-15.5.34.03 1.22 15.5-.35-.03-1.21ZM209.78 216.38l15.37.89-.07 1.21-15.37-.88.07-1.22ZM224.79 229.7l-9.21.46-.06-1.22 9.2-.47.07 1.22ZM260.08 185.36l16.9.71.05-1.22-16.9-.7-.05 1.21ZM276.73 196.3l-15.38.83-.06-1.22 15.37-.83.07 1.22ZM260.2 207.51l15.48.35.03-1.22-15.49-.34-.03 1.21ZM275.94 217.6l-15.36.88-.07-1.22 15.37-.88.06 1.22ZM270.14 228.93l-9.21-.47-.06 1.22 9.2.47.07-1.22ZM215.03 251.67l-15.05-3.14-.25 1.2 13.99 2.91-4.42 47.2 1.21.11 4.52-48.28ZM271.94 252.64l13.99-2.92-.25-1.2-15.06 3.15 4.52 48.28 1.22-.11-4.42-47.2ZM411.06 235.04l2.5 15.1-1.2.2-2.32-14.01-18.49 1.18-.89 10.99-1.22-.1.98-12.04 20.64-1.32ZM325.65 235.83l2.63-14.28 1.2.22-2.63 14.28-1.2-.22ZM338.8 223.17l-4.56 13.37 1.15.4 4.56-13.37-1.16-.4ZM346.61 236.72l3.2-12.24 1.19.31-3.21 12.24-1.18-.31ZM359.36 226.17l-3.2 12.23 1.17.31 3.21-12.23-1.18-.31ZM365.4 239.5l4.83-11.48 1.13.48-4.84 11.47-1.12-.48ZM162.22 160.22l10.92 1.4.33 18.54-14.08 1.68.14 1.21 15.18-1.8-.37-20.7-11.96-1.54-.16 1.21Z" fill="#A3A9AC"/></svg>