<svg fill="none" xmlns="http://www.w3.org/2000/svg" viewBox="0 0 489 357"><path opacity=".3" d="m120.7 133.6-19.9-.8a2.7 2.7 0 1 0 0 5.4l20-.7" fill="#A3A9AC"/><path opacity=".4" fill-rule="evenodd" clip-rule="evenodd" d="M121.7 125a5.1 5.1 0 1 1 9.4 2.9h1.9v11.2l-12.4-.6v-11.2l1.7.1a5 5 0 0 1-.6-2.3Zm5.1-3.9a4 4 0 0 0-2.9 6.6l1 1h-3v8.6l9.8.5v-8.7l-3.4-.1 1.1-1a4 4 0 0 0-2.6-6.9Z" fill="#A3A9AC"/><path opacity=".3" d="M464.8 263.5H295.6l-.5-13.3h169.2l.5 13.3ZM315 168.5a2 2 0 1 1-3.9 0 2 2 0 0 1 3.9 0Zm21.1 0a2 2 0 1 1-3.8 0 2 2 0 0 1 3.8 0Zm19.3 2a2 2 0 1 1-3.9 0 2 2 0 0 1 3.9 0Zm23-2a2 2 0 1 1-3.8 0 2 2 0 0 1 3.8 0Zm21.2 1a2 2 0 1 1-3.9 0 2 2 0 0 1 3.9 0Zm21.1-1a2 2 0 1 1-3.8 0 2 2 0 0 1 3.8 0Zm21.2.6a2 2 0 1 1-3.9 0 2 2 0 0 1 3.9 0Zm-125 20.6a2 2 0 1 1-3.8 0 2 2 0 0 1 3.8 0Zm19.3 0a2 2 0 1 1-4 0 2 2 0 0 1 4 0Zm21.1 0a2 2 0 1 1-3.9 0 2 2 0 0 1 3.9 0Zm21.1 0a2 2 0 1 1-3.8 0 2 2 0 0 1 3.8 0Zm19.3 1.5a2 2 0 1 1-3.9 0 2 2 0 0 1 3.9 0Zm23-1.5a2 2 0 1 1-3.8 0 2 2 0 0 1 3.8 0Zm21.2 0a2 2 0 1 1-3.9 0 2 2 0 0 1 3.9 0ZM315 210.9a2 2 0 1 1-3.9 0 2 2 0 0 1 3.9 0Zm21.1 0a2 2 0 1 1-3.8 0 2 2 0 0 1 3.8 0Zm21.2 0a2 2 0 1 1-3.9 0 2 2 0 0 1 3.9 0Zm23 .8a2 2 0 1 1-3.8 0 2 2 0 0 1 3.9 0Zm19.3-.8a2 2 0 1 1-3.9 0 2 2 0 0 1 3.9 0Zm21.8-1.1a2 2 0 1 1-3.9 0 2 2 0 0 1 3.9 0Zm19.6 1a2 2 0 1 1-3.9 0 2 2 0 0 1 4 0ZM317 234a2 2 0 1 1-4 0 2 2 0 0 1 4 0Zm17.2 0a2 2 0 1 0 0-3.9 2 2 0 0 0 0 3.9Zm23.1-2a2 2 0 1 1-3.9 0 2 2 0 0 1 3.9 0Zm19.2 2a2 2 0 1 0 0-3.9 2 2 0 0 0 0 3.9Zm23.1 0a2 2 0 1 1-3.9 0 2 2 0 0 1 3.9 0Zm19.2 0a2 2 0 1 0 0-3.9 2 2 0 0 0 0 3.9Zm23.1-2a2 2 0 1 1-3.9 0 2 2 0 0 1 3.9 0Z" fill="#A3A9AC"/><path d="M336.1 278.5H347v-1.2h-10.8v1.2Zm77.3 0h10.8v-1.2h-10.8v1.2ZM369.8 316V305h-1.3V316h1.3Zm25.7-16 .7 13.6H395l-.7-13.5 1.2-.1Z" opacity=".4" fill="#A3A9AC"/><g opacity=".2" fill="#A3A9AC"><path d="M80.9 150.9h68v-11.7l-67.6-1.3-.4 13Z"/><path fill-rule="evenodd" clip-rule="evenodd" d="M43 352.9 83.6 151h13.8L95 162.7h23.5L121 151h13.8L94 352.9H80.3l3.6-17.8H60.4l-3.6 17.8H43Zm15.7-19 .8-5.5h25l-.7 5.5H58.7Zm6.3-22.1-3 15.4h23.4l3-14.4-23.4-1Zm28.2-23L89.9 305l-23.3-1 3.2-15.9 23.4.7Zm-29.9 21.7 1-5.4 25 1-1 5.5-25-1Zm4.8-23.7 1-5.4 24.8.7-.9 5.5-24.9-.8Zm6.7-23.3-3.4 16.8 23.4.6 3.4-16.8-23.4-.6Zm28-22.4-3 14.8-23.4-.3 2.8-14.3 23.6-.2ZM73 262.3l.8-5.4 25.1.3-1.1 5.7-24.8-.6Zm4-22.1.8-5.4 25.5-.2-.7 5.4-25.6.2Zm7-22.4-3.2 15.7 23.5-.1 3-14.3-23.3-1.3Zm28.1-23.1-3.3 16.5-23.2-1.3 3-15.5 23.5.3Zm-30.5 21.7.9-5.4 25.4 1.4-.9 5.4-25.4-1.4Zm5-23.2 1-5.4 25.1.2-.8 5.4-25.2-.2Zm6.9-22.6-3.2 16 23.4.2 3.3-16.2H93.5Zm24.3-6.6-.8 5.4H90.7l.8-5.4h26.3Z"/><path d="m384.4 286.9 70.5.9-.2-19.3-70.7-.5.4 18.9Zm-79.2.8 72.3-1V268h-70.7l-1.6 19.7ZM309 331l31.5.5V348l35.3.9 1-55.8-67.8 1.4v6.4h5.6l12 30.4-17.6-.3Zm77.9 16.2 65.6.2 1-54.3-66.6-.6v54.7Z"/></g><path opacity=".4" d="m326.6 331.3-173.4-2.6 13.5-27.9h148l11.9 30.5Z" fill="#A3A9AC"/><path opacity=".3" d="m340.5 331.5-202.3-3v24.3h202.3v-21.3Z" fill="#A3A9AC"/><g opacity=".4" fill="#A3A9AC"><path d="M455.5 152.2v98h-1.2v-96.8l-155 2.6 2.9 94.2h-1.3l-2.8-95.4 157.4-2.6ZM299.3 263.6v37.2h-1.2v-37.2h1.2Zm0 67.3h-1.2 1.2Z"/><path d="M462.3 352.2v-88.6H461v88.6H1.7v1.2h485.9v-1.2h-25.3Z"/></g><path d="m117 169.3.8-5.4H91.5l-.8 5.4H117Zm-10 48.4.9-5.4-25.4-1.4-1 5.4 25.5 1.5Zm-4.4 22.2.7-5.4-25.5.2-.8 5.4 25.6-.2ZM93 287.6l.9-5.5-24.9-.7-.9 5.4 25 .8Zm-4.6 24 .8-5.5-25-1-.9 5.4 25 1Zm-4.6 22.3.8-5.4-25.1-.1-.9 5.4h25.2Zm28.1-140.5.8-5.5-25.2-.2-.8 5.4 25.2.2Zm-14.1 69.4 1.1-5.7-25.1-.3-.8 5.4 24.8.6Z" opacity=".1" fill="#A3A9AC"/><path d="m93.5 170.5-1.8 8.7 1.5 7.3 13.3.1-3.3-16h-9.7Zm1.5-7.8h6.6l-2.4-11.8h-1.8L95 162.7Zm13.1 31.8-13.3-.1 3.3 16.2 10.7.6 1.4-6.8-2-9.9Zm-.9 24.5-7.5-.4 3 14.7h1.6l3-14.3Zm3.6 50.7h-.2l-.9 4.4h1.2l16 78.7h11.3V341l-13.7-66.9h27.3l7 43.2 8-16.4h2.9l-24.1-150h-10.9l-1.5 7.6L151 269.7h-27.5l-6.5-31.4-6.3 31.4Zm51.5 59.1 12 .2-12-.2Z" opacity=".3" fill="#A3A9AC"/><path d="m194.6 86-12.4 66-11.8-2.3 9-69.2 15.1 5.6Zm.6 119.5a15.2 15.2 0 1 1-28.6 10 15.2 15.2 0 1 1 28.6-10Zm2.2-7.3a6.7 6.7 0 0 1 0 13.4v-13.4ZM427 211.4a6.7 6.7 0 1 1 13.4-.5l-13.4.5Zm7.5 2a15.2 15.2 0 0 1 11.3 28.2 15.2 15.2 0 0 1-11.3-28.2Zm-119.2 6.2 66.5 9.3-1.8 12-69.6-6 4.9-15.3Zm-57-53.7 2.5 76.4 15 1.1 2.5-81.5-20 4Zm-30.7 0-2.5 76.4-15 1.1-2.5-81.5 20 4Z" fill="#E9EAEB"/><path fill-rule="evenodd" clip-rule="evenodd" d="M301.3 96c.5-1.2.8-2.5 1-3.9 1 3.8 1 7.8.8 12l-.2 3.3c-.2 3.5-.4 7.1-.1 10.6h1.2c-.3-3.5 0-7 .1-10.4l.2-3.5c.2-4.6.2-9.3-1.2-13.7l-.6.2.3-4.3h-1.2c-.2 3.2-.4 6.5-1.5 9.4a8 8 0 0 0-.3 3l.2 2v1c.2 1 .2 1.9 0 2.4v.5l-1.8-2.8.2-1.3 1-6-1.2-.2-1 6c-1.5-2.6-2.6-5.4-2-8.2l-1.1-.2c-.9 3.6 1 7.3 2.7 10l.1.1-.4 2.2a9.2 9.2 0 0 1-3.1-3.4 31 31 0 0 1-2.8-8.8l-1.3.3c1 4 2.6 11.3 7 13.3a92.2 92.2 0 0 0-1 8.6h1.2c.2-2.7.5-5.4 1-8.2.6.1 1.2.2 1.9.1a10.7 10.7 0 0 1 1.2 4.6h1.2a11.9 11.9 0 0 0-1.3-5 2.5 2.5 0 0 0 .7-1.3c.2-.8.2-1.8.1-2.8l-.1-1-.1-2c0-1 0-1.9.2-2.5Zm-3.6 8.7 1 .2-.8-1.3-.2 1.1Z" fill="#A3A9AC"/><path d="m250.6 154.6-14.9 1.9.8-97h13.4l.7 95Z" fill="#799CFB"/><path d="M268.2 176.8a13.2 13.2 0 1 1 0-26.4 13.2 13.2 0 0 1 0 26.4Zm-50.8-1a12.2 12.2 0 1 0 0-24.4 12.2 12.2 0 0 0 0 24.4Zm-14.1 56.8a375 375 0 0 1-1.1 4.5c-3.7 14.8-10.2 40.6-6.8 63.8h31.5c5.8 0 10.5-5 10.2-10.8-.5-11.8-1.9-30.8-5.8-42.7a30.7 30.7 0 0 0-19.5-19c-3.2-1.3-7.7.8-8.5 4.2Zm80.2 4.5-1.1-4.5c-.9-3.4-5.3-5.5-8.6-4.3a30.7 30.7 0 0 0-19.4 19.1c-4 12-5.4 30.9-5.9 42.7a10.3 10.3 0 0 0 10.3 10.8h31.5c3.4-23.2-3.1-49-6.8-63.8ZM456.8 353h9.2l3.7-6.2-3.6-6.3h-9.3l-3.6 6.3 3.6 6.2Zm-368-12.4h-9.2l-3.6 6.2 3.6 6.2h9.2l3.6-6.2-3.6-6.2Z" fill="#C5CACB"/><path d="m213.4 68.6 58.8.2V44.3A29.4 29.4 0 0 0 242.8 15c-16.2 0-29.4 13.2-29.4 24.4v29.3ZM187 72.3l31 62.5 52-1 28.9-61.6h-112Zm32.8 192.1a2 2 0 1 0 0-4 2 2 0 0 0 0 4Zm7.5 36.5a10 10 0 1 0 0-20 10 10 0 0 0 0 20Zm31.3 0a10 10 0 1 1 0-20 10 10 0 0 1 0 20Zm7.5-36.5a2 2 0 1 1 0-4 2 2 0 0 1 0 4ZM212 138l-.3 29.3h64l.6-29.3h-64.2Zm-33 163v-2.7a5.6 5.6 0 0 1 2.8-4.8l14.3-8.4L205 301h-26Zm127.8-2.7v2.6h-26l9-15.8 14.2 8.4c1.7 1 2.8 2.8 2.8 4.8Zm-221 51.4h11.6V344H85.8a2.9 2.9 0 0 0 0 5.7Zm362.4-5.6h11.6a2.9 2.9 0 0 1 0 5.8h-11.6V344Z" fill="#E9EAEB"/><path d="M215.8 79.5a2.2 2.2 0 1 1-4.3-.4 2.2 2.2 0 0 1 4.3.4Z" fill="#FF6B60"/><path d="M222.4 79.5a2.2 2.2 0 1 1-4.3-.4 2.2 2.2 0 0 1 4.3.4Z" fill="#FFCF50"/><path fill-rule="evenodd" clip-rule="evenodd" d="m242.1 17.1-.8-13h-1.2l.8 13h1.2Z" fill="#7F878B"/><path d="M226.4 46.5v-1.8h-1.2v1.8a3.3 3.3 0 1 0 6.6 0v-1.8h-1.2v1.8a2.1 2.1 0 1 1-4.2 0Zm29.3 0v-1.8h-1.2v1.8a3.3 3.3 0 1 0 6.6 0v-1.8h-1.2v1.8a2 2 0 1 1-4.2 0Z" fill="#7F878B"/><path d="M244.4 4a3.7 3.7 0 1 1-7.4 0 3.7 3.7 0 0 1 7.4 0Zm-17.8 77.5a2.2 2.2 0 1 0 .4-4.3 2.2 2.2 0 0 0-.4 4.3Zm2.4 62-17 .8-.2 16h17.7l-.5-16.9Zm46.8 16h-16.9l-.6-15.2 17.9-.9-.4 16.2ZM249.1 101h-34.7a1.5 1.5 0 0 1-1.5-1.5v-9.2c0-.8.7-1.5 1.5-1.5h34.7c.8 0 1.5.7 1.5 1.5v9.2c0 .8-.7 1.5-1.5 1.5Zm-16-84.4a29.4 29.4 0 0 1 17.6-.5l-1.4 18.5H235l-2-18Z" fill="#00C7B7"/><path d="M276.2 81.6h-38.6a2.3 2.3 0 0 1 0-4.5h38.6a2.3 2.3 0 0 1 0 4.5ZM216 111h27v-1.3h-27v1.3Zm23.5 3.8-19.4.4v1.2l19.4-.4v-1.2Zm-19.4 8.6 14.4-.3v-1.2l-14.4.3v1.2Zm14.3-25-4.3-7.9-1 .6 4.2 8 1.1-.6Zm-8.6-6 .6 1-2.6 1.4 2.6 1.5-.6 1-4.5-2.5 4.5-2.5Zm11.6 0 4.5 2.4-4.5 2.5-.6-1 2.6-1.5-2.6-1.4.6-1Z" fill="#fff"/><path d="M261.1 112.3a4.7 4.7 0 0 0-7 .4 4.9 4.9 0 0 0 .5 6.5l5.2 5.2a1.9 1.9 0 0 0 2.7 0l5.2-5.2a4.9 4.9 0 0 0 .5-6.5 4.7 4.7 0 0 0-7-.4Z" fill="#799CFB"/><path d="M244.2 60.1h11a1.2 1.2 0 0 0 0-2.4h-11a1.2 1.2 0 0 0 0 2.4Zm42.4 18.7a11.2 11.2 0 1 0 22.3 0 11.2 11.2 0 0 0-22.3 0Zm-85.2 1a11.2 11.2 0 1 1-22.3-1 11.2 11.2 0 0 1 22.3 1ZM163.9 217c-9.9-29.7.2-77.8.2-77.8l5.4 1.2a31 31 0 0 1 21.6 17.6c7.9 17.6 9.9 52.5 9.9 52.5-18.7 12.3-37.1 6.5-37.1 6.5Zm99.7-121.8a2 2 0 1 1-4 0 2 2 0 0 1 4 0Zm-35.3 17v-3.7h1.8l-.3 3.7h-1.5Zm7.8 5v-3.6l-1.6.1.1 3.7 1.5-.2Zm-12.6 7.3v-3.7l1.5-.2.1 3.7-1.6.1ZM271 95.3a2 2 0 1 1-3.9 0 2 2 0 0 1 4 0Zm5.4 2a2 2 0 1 0 0-4 2 2 0 0 0 0 4Zm93.2 150.3s48.4 7.8 77.6-3.4c0 0 5-18.7-8.2-36.8 0 0-34.7 3.7-51.9 12.3a31 31 0 0 0-16.6 22.4l-1 5.5Zm-269.4 99.2a2.9 2.9 0 1 1-5.7 0 2.9 2.9 0 0 1 5.7 0Zm345 0a2.9 2.9 0 1 1 5.8 0 2.9 2.9 0 0 1-5.8 0Z" fill="#C5CACB"/><path d="m192 99-12-2.7-.4 1.2 12.1 2.8.3-1.2Zm-2.1 10.5-11.6-4.6-.4 1.2 11.5 4.5.5-1.1Zm-14 7.2 12.2 3.8-.4 1.1-12-3.7.3-1.2Zm10 13.2-12-3.7-.4 1.1 12 3.8.4-1.2Zm-2.3 10.8-11.3-5.3-.5 1 11.3 5.4.5-1Zm42 43.5-17 .7v1.2l17-.7V184ZM209 195l15.4.8-.1 1.2-15.4-.8V195Zm16.4 11.2-15.5.3v1.3l15.6-.4v-1.2Zm-15.6 10 15.3 1v1.2l-15.4-.9v-1.2Zm15 13.4-9.2.5v-1.3l9.1-.4v1.2Zm35.3-44.3 16.9.7v-1.2l-16.9-.7v1.2Zm16.6 10.9-15.3.8-.1-1.2 15.4-.8v1.2Zm-16.5 11.2 15.5.4v-1.3l-15.5-.3v1.2Zm15.7 10.1-15.3.9v-1.2l15.3-1v1.3Zm-5.8 11.3-9.2-.4v1.2l9.2.5v-1.3Zm-55 22.8-15.1-3.2-.3 1.2 14 3-4.4 47.1 1.2.1 4.5-48.2Zm56.8 1 14-3-.2-1.2-15 3.2L275 300l1.3-.2-4.5-47.2ZM411.1 235l2.5 15.1-1.2.2-2.4-14-18.4 1.2-1 11-1.2-.1 1-12 20.7-1.4Zm-85.5.8 2.7-14.2 1.2.2-2.7 14.2-1.2-.2Zm13.2-12.6-4.6 13.3 1.2.4 4.6-13.3-1.2-.4Zm7.8 13.5 3.2-12.2 1.2.3-3.2 12.2-1.2-.3Zm12.8-10.5-3.2 12.2 1.1.3 3.2-12.2-1.1-.3Zm6 13.3 4.8-11.5 1.2.5-4.9 11.5-1.1-.5Zm-203.2-79.3 11 1.4.3 18.6-14.1 1.6.1 1.2 15.2-1.7-.4-20.8-12-1.5v1.2Z" fill="#A3A9AC"/></svg>